<svg xmlns="http://www.w3.org/2000/svg" viewBox="0 0 24 24">
                       <path d="M16 6H8v1.5a.5.5 0 0 1-1 0V6H5a1 1 0 0 0-1 1v3h16V7a1 1 0 0 0-1-1h-2v1.5a.5.5 0 1 1-1 0V6zm1-1h2a2 2 0 0 1 2 2v12a2 2 0 0 1-2 2H5a2 2 0 0 1-2-2V7a2 2 0 0 1 2-2h2V3.5a.5.5 0 0 1 1 0V5h8V3.5a.5.5 0 1 1 1 0V5zm3 6H4v8a1 1 0 0 0 1 1h14a1 1 0 0 0 1-1v-8zm-6.044 5.637c0 .395-.137.728-.412 1-.274.272-.643.442-1.107.511v.467a.383.383 0 0 1-.104.278.364.364 0 0 1-.274.107.364.364 0 0 1-.274-.107.383.383 0 0 1-.104-.278v-.452a3.35 3.35 0 0 1-.822-.178 2.35 2.35 0 0 1-.689-.37.373.373 0 0 1-.133-.148.482.482 0 0 1-.037-.2c0-.104.03-.195.093-.274.061-.08.132-.119.21-.119.05 0 .096.009.138.026.042.017.097.046.166.085.228.148.451.257.67.326.22.07.451.104.693.104.331 0 .587-.064.767-.193.18-.128.27-.313.27-.555 0-.144-.049-.26-.148-.348a1.078 1.078 0 0 0-.37-.212 8.284 8.284 0 0 0-.622-.181 6.743 6.743 0 0 1-.904-.285 1.567 1.567 0 0 1-.6-.441c-.168-.198-.252-.464-.252-.8 0-.4.143-.74.43-1.022.286-.282.661-.457 1.126-.526v-.467c0-.113.034-.206.103-.278a.364.364 0 0 1 .274-.107c.114 0 .205.036.275.107.069.072.103.165.103.278v.46c.499.064.929.244 1.29.54a.415.415 0 0 1 .177.348c0 .104-.031.195-.093.274-.061.08-.134.119-.218.119a.387.387 0 0 1-.13-.022.872.872 0 0 1-.167-.09 2.8 2.8 0 0 0-.574-.321 1.732 1.732 0 0 0-.64-.108c-.307 0-.55.068-.734.204a.659.659 0 0 0-.274.56.53.53 0 0 0 .156.395c.104.102.234.18.392.234.158.054.373.116.645.185.36.089.654.18.881.274.227.094.421.236.582.426.16.19.24.448.24.774z"></path>
                     </svg>